<svg width="290" height="289" xmlns="http://www.w3.org/2000/svg" xmlns:xlink="http://www.w3.org/1999/xlink" xml:space="preserve" overflow="hidden"><g transform="translate(-2055 -1093)"><path d="M2177.71 1093 2222.29 1093C2290.06 1093 2345 1147.75 2345 1215.29L2345 1259.71C2345 1327.25 2290.06 1382 2222.29 1382L2177.71 1382C2109.94 1382 2055 1327.25 2055 1259.71L2055 1215.29C2055 1147.75 2109.94 1093 2177.71 1093ZM2193.93 1149.37C2151.19 1149.37 2116.53 1183.9 2116.53 1226.5 2116.53 1237.15 2118.7 1247.3 2122.62 1256.53L2132.63 1271.33 2129.56 1275.09C2127.25 1279.41 2125.75 1284.25 2125.28 1289.43 2123.41 1310.17 2138.76 1328.49 2159.56 1330.36 2175.16 1331.76 2189.41 1323.5 2196.34 1310.54L2198.54 1303.17 2209.53 1302.07 2214.57 1300.51 2221.02 1304.84C2227.92 1307.74 2235.5 1309.35 2243.46 1309.35 2275.3 1309.35 2301.12 1283.63 2301.12 1251.89 2301.12 1236.02 2294.67 1221.66 2284.23 1211.26L2266.05 1199.04 2265.25 1196.48C2253.5 1168.8 2225.99 1149.37 2193.93 1149.37Z" fill="#FFFFFF" fill-rule="evenodd"/><path d="M2117 1226.5C2117 1183.7 2151.47 1149 2194 1149 2236.53 1149 2271 1183.7 2271 1226.5 2271 1269.3 2236.53 1304 2194 1304 2151.47 1304 2117 1269.3 2117 1226.5Z" fill="#FFFFFF" fill-rule="evenodd" fill-opacity="0.4"/><path d="M2186 1252C2186 1219.97 2211.74 1194 2243.5 1194 2275.26 1194 2301 1219.97 2301 1252 2301 1284.03 2275.26 1310 2243.5 1310 2211.74 1310 2186 1284.03 2186 1252Z" fill="#FFFFFF" fill-rule="evenodd" fill-opacity="0.4"/><path d="M2166.38 1255.32C2187.16 1257.19 2202.5 1275.56 2200.62 1296.35 2198.75 1317.14 2180.38 1332.47 2159.59 1330.6 2138.81 1328.73 2123.47 1310.36 2125.35 1289.57 2127.22 1268.78 2145.59 1253.45 2166.38 1255.32Z" fill="#FFFFFF" fill-rule="evenodd" fill-opacity="0.4"/></g></svg>